# xmcd CD database file
#
# Track frame offsets:
#	150
#	11829
#	26216
#	36190
#	49775
#	58978
#	70789
#	82788
#	94862
#	105940
#	117621
#	128493
#	143262
#	158501
#	170177
#	184797
#	195994
#	207517
#	219036
#	240850
#
# Disc length: 3413 seconds
#
# Revision: 0
# Processed by: cddbd v1.5.2PL0 Copyright (c) Steve Scherf et al.
# Submitted via: CDex 1.70beta2
#
DISCID=050d5314
DTITLE=Compilation Bal Country - Le son de Nashville
DYEAR=2012
DGENRE=Country
TTITLE0=Oh Lonesome me
TTITLE1=Me and Bobby Mc Gee
TTITLE2=Nobody's business
TTITLE3=When there's à fire in your heart
TTITLE4=Company's comin'
TTITLE5=Singing the blues
TTITLE6=Gentle on my mind
TTITLE7=Stand by your man
TTITLE8=I can't stop loving you
TTITLE9=Everybody's talkin
TTITLE10=There won't be anymore
TTITLE11=If I could hear my mother pray again
TTITLE12=On my knees
TTITLE13=Fraülein
TTITLE14=Sixteen toons
TTITLE15=Why baby why
TTITLE16=Rollin' with the flow
TTITLE17=Dum dum
TTITLE18=Big four poster bed
TTITLE19=Blanket on the ground
EXTD=YEAR: 2012
EXTT0=
EXTT1=
EXTT2=
EXTT3=
EXTT4=
EXTT5=
EXTT6=
EXTT7=
EXTT8=
EXTT9=
EXTT10=
EXTT11=
EXTT12=
EXTT13=
EXTT14=
EXTT15=
EXTT16=
EXTT17=
EXTT18=
EXTT19=
PLAYORDER=
